<?xml version="1.0" encoding="utf-8"?>
<!-- Generator: Adobe Illustrator 17.1.0, SVG Export Plug-In . SVG Version: 6.00 Build 0)  -->
<!DOCTYPE svg PUBLIC "-//W3C//DTD SVG 1.1//EN" "http://www.w3.org/Graphics/SVG/1.1/DTD/svg11.dtd">
<svg version="1.1" id="Layer_1" xmlns="http://www.w3.org/2000/svg" xmlns:xlink="http://www.w3.org/1999/xlink" x="0px" y="0px"
	 viewBox="0 0 182.3 186.2" enable-background="new 0 0 182.3 186.2" xml:space="preserve">
<g>
	<g>
		<path fill="#FFFFFF" d="M90.8,159l-9.9-10.7c-6.4-7.2-3.4-12.9-2.3-15.2l12.2-19.8L90.8,159z"/>
		<path opacity="0.7" fill="#FFFFFF" d="M90.8,150l9.9-10.7c6.4-7.2,3.4-12.9,2.3-15.2l-12.2-19.8L90.8,150z"/>
		<path fill="#FFFFFF" d="M137.6,139.8l-14.6-0.6c-9.6-0.6-11.5-6.7-12.4-9.2l-5.4-22.6L137.6,139.8z"/>
		<path opacity="0.7" fill="#FFFFFF" d="M131.2,133.4l-0.6-14.6c-0.6-9.6-6.7-11.5-9.2-12.4L98.8,101L131.2,133.4z"/>
		<path fill="#FFFFFF" d="M157.1,93.1l-10.7,9.9c-7.2,6.4-12.9,3.4-15.2,2.3l-19.8-12.2L157.1,93.1z"/>
		<path opacity="0.7" fill="#FFFFFF" d="M148,93.2l-10.7-9.9c-7.2-6.4-12.9-3.4-15.2-2.3l-19.8,12.2L148,93.2z"/>
		<path fill="#FFFFFF" d="M137.9,46.3l-0.6,14.6c-0.6,9.6-6.7,11.5-9.2,12.4l-22.6,5.4L137.9,46.3z"/>
		<path opacity="0.7" fill="#FFFFFF" d="M131.5,52.8l-14.6,0.6c-9.6,0.6-11.5,6.7-12.4,9.2l-5.4,22.6L131.5,52.8z"/>
		<path fill="#FFFFFF" d="M91.2,26.8l9.9,10.7c6.4,7.2,3.4,12.9,2.3,15.2L91.2,72.6L91.2,26.8z"/>
		<path opacity="0.7" fill="#FFFFFF" d="M91.2,35.9l-9.9,10.7c-6.4,7.2-3.4,12.9-2.3,15.2l12.2,19.8L91.2,35.9z"/>
		<path fill="#FFFFFF" d="M44.4,46.1L59,46.6c9.6,0.6,11.5,6.7,12.4,9.2l5.4,22.6L44.4,46.1z"/>
		<path opacity="0.7" fill="#FFFFFF" d="M50.8,52.5l0.6,14.6c0.6,9.6,6.7,11.5,9.2,12.4l22.6,5.4L50.8,52.5z"/>
		<path fill="#FFFFFF" d="M24.9,92.8l10.7-9.9c7.2-6.4,12.9-3.4,15.2-2.3l19.8,12.2L24.9,92.8z"/>
		<path opacity="0.7" fill="#FFFFFF" d="M34,92.7l10.7,9.9c7.2,6.4,12.9,3.4,15.2,2.3l19.8-12.2L34,92.7z"/>
		<path fill="#FFFFFF" d="M44.1,139.5l0.6-14.6c0.6-9.6,6.7-11.5,9.2-12.4l22.6-5.4L44.1,139.5z"/>
		<path opacity="0.7" fill="#FFFFFF" d="M50.6,133.1l14.6-0.6c9.6-0.6,11.5-6.7,12.4-9.2l5.4-22.6L50.6,133.1z"/>
	</g>
	<g>
		<path fill="#FFFFFF" d="M11.6,72.1l0.5,0.1c-0.3,1.1-0.5,1.8-0.6,2.2L11,76.7l-0.5-0.1c0.1-0.6,0.2-1,0.2-1.1
			c0-0.1-0.1-0.3-0.1-0.3c-0.1-0.1-0.3-0.2-0.7-0.3c-0.1,0-0.8-0.2-2.2-0.5l-3.6-0.8C3.4,73.3,2.7,73.2,2,73
			c-0.5-0.1-0.8-0.1-0.9-0.1c-0.1,0-0.2,0.1-0.3,0.2c-0.1,0.1-0.2,0.5-0.3,1.1L0,74.2c0.3-1,0.5-1.7,0.6-2.3
			c0.1-0.5,0.3-1.3,0.5-2.3l0.5,0.1c-0.1,0.6-0.2,1-0.2,1.1c0,0.1,0.1,0.2,0.1,0.3c0.1,0.1,0.3,0.2,0.7,0.3c0.1,0,0.8,0.2,2.2,0.5
			L8,72.9c0.7,0.2,1.4,0.3,2.1,0.5c0.5,0.1,0.8,0.1,0.9,0.1c0.1,0,0.2-0.1,0.3-0.2C11.3,73,11.4,72.7,11.6,72.1z"/>
		<path fill="#FFFFFF" d="M12.6,69.4l-0.5-0.2c0.2-0.5,0.3-0.9,0.3-1.1c0-0.1,0-0.1-0.1-0.2c-0.1-0.1-0.3-0.2-0.7-0.4
			c-0.6-0.3-1.2-0.5-1.7-0.7l-6-2.3c-0.2-0.1-0.3-0.1-0.3-0.1c-0.1,0-0.2,0.1-0.4,0.1c-0.1,0.1-0.2,0.1-0.3,0.2
			c-0.1,0.1-0.2,0.4-0.3,0.8l-0.5-0.2c0.4-0.8,0.6-1.4,0.7-1.6c0.1-0.4,0.3-0.7,0.4-1.1c0.7-0.2,1.2-0.4,1.6-0.4l2.5-0.8l3.6-1.2
			c1.1-0.4,2-0.7,2.7-0.9c0.4-0.1,0.8-0.3,1-0.4L9,56.9c-0.5-0.2-1.1-0.4-1.7-0.6c-0.4-0.1-0.7-0.2-0.8-0.2c-0.1,0-0.1,0-0.2,0.1
			c-0.1,0.1-0.3,0.5-0.5,1L5.3,57c0.2-0.6,0.5-1.2,0.7-1.8c0.2-0.6,0.4-1.1,0.6-1.5l0.5,0.2c-0.2,0.5-0.3,0.9-0.3,1.1
			c0,0.1,0,0.2,0.1,0.2c0.1,0.1,0.3,0.2,0.7,0.4c0.6,0.3,1.2,0.5,1.7,0.7l3.6,1.4c0.7,0.3,2.1,0.8,4.1,1.5l-0.5,0.7l-0.1,0.2
			c0,0,0,0-0.1,0.1c0,0-0.2,0.1-0.4,0.2c-0.6,0.2-1.1,0.4-1.4,0.5l-1.6,0.5L4.4,64l5.8,2.2c0.5,0.2,1.1,0.4,1.8,0.6
			c0.4,0.1,0.7,0.2,0.8,0.2c0.1,0,0.2,0,0.2-0.1c0.1-0.1,0.3-0.5,0.5-1l0.5,0.2c-0.2,0.4-0.4,0.9-0.6,1.4
			C13.1,68.1,12.9,68.7,12.6,69.4z"/>
		<path fill="#FFFFFF" d="M18.3,55c-0.4-0.3-1.1-0.8-2.1-1.4l0.3-0.5c0.7,0.4,1.1,0.6,1.3,0.6c0.2,0,0.4,0,0.6-0.2
			c0.3-0.1,0.5-0.3,0.8-0.6c0.3-0.3,0.6-0.6,0.7-0.9c0.3-0.5,0.4-1,0.4-1.5c0-0.5-0.1-1-0.3-1.3c-0.2-0.4-0.6-0.7-1-0.9
			c-0.3-0.2-0.6-0.3-0.9-0.3c-0.3,0-0.5,0-0.8,0.1c-0.2,0.1-0.5,0.3-0.7,0.5c-0.1,0.2-0.4,0.5-0.7,0.9c-0.4,0.5-0.7,0.9-1,1.2
			c-0.4,0.4-0.8,0.6-1.1,0.8c-0.3,0.1-0.7,0.1-1.1,0.1c-0.4,0-0.8-0.2-1.2-0.4c-0.5-0.3-1-0.8-1.3-1.3C10,49.3,9.9,48.7,10,48
			c0.1-0.7,0.3-1.4,0.7-2c0.2-0.4,0.5-0.8,0.9-1.2c0.4-0.4,0.8-0.7,1.2-1c0.3,0.2,0.5,0.4,0.7,0.6c0.2,0.2,0.6,0.4,1.1,0.7l-0.3,0.5
			c-0.7-0.4-1.1-0.6-1.2-0.6c-0.2,0-0.5,0.1-0.7,0.2c-0.5,0.3-1,0.7-1.3,1.2c-0.4,0.7-0.5,1.3-0.3,1.9c0.2,0.6,0.6,1.1,1.2,1.5
			c0.4,0.2,0.7,0.3,1,0.3c0.3,0,0.6-0.2,1-0.5c0.2-0.2,0.6-0.6,1-1.1c0.4-0.5,0.8-1,1.1-1.4c0.4-0.4,0.7-0.6,1-0.7
			c0.3-0.1,0.6-0.1,1-0.1c0.4,0,0.7,0.2,1.1,0.4c0.9,0.5,1.5,1.4,1.7,2.5c0.2,1.2,0,2.3-0.7,3.5C19.7,53.7,19.1,54.4,18.3,55z"/>
		<path fill="#FFFFFF" d="M15.5,39.6l-0.4-0.3c0.7-0.8,1.2-1.5,1.6-2c0.3-0.3,0.5-0.7,0.8-1.1l0.7-1c0.1-0.1,0.2-0.2,0.2-0.3
			c0.5-0.7,1-1.1,1.4-1.4c0.4-0.3,0.9-0.4,1.4-0.3c0.5,0,0.9,0.2,1.3,0.5c0.4,0.3,0.7,0.7,0.9,1.1c0.2,0.5,0.3,1,0.3,1.5
			c0,0.5-0.1,1-0.3,1.5c-0.1,0.3-0.3,0.6-0.6,0.9c-0.2,0.3-0.5,0.5-0.8,0.8l-0.6-0.2c0.4-0.3,0.7-0.6,0.8-0.8
			c0.2-0.3,0.4-0.7,0.5-1.1c0.1-0.4,0-0.8-0.2-1.2c-0.2-0.4-0.5-0.7-0.8-1c-0.4-0.3-0.7-0.5-1.2-0.5c-0.4-0.1-0.8,0-1.2,0.2
			c-0.4,0.2-0.8,0.5-1.1,1c-0.3,0.4-0.6,0.9-0.8,1.4c0.4,0.4,1.1,0.9,2,1.7l3.2,2.5c0.6,0.4,1.1,0.9,1.7,1.3
			c0.4,0.3,0.7,0.5,0.8,0.5c0.1,0,0.2,0,0.3-0.1c0.1-0.1,0.4-0.4,0.8-0.9l0.4,0.3c-0.6,0.8-1.1,1.3-1.4,1.7c-0.1,0.1-0.6,0.8-1.5,2
			l-0.4-0.3c0.4-0.5,0.6-0.8,0.6-1c0-0.1,0.1-0.2,0-0.3c0-0.1-0.2-0.3-0.5-0.6C23.6,44,23,43.5,22,42.6L19,40.4
			c-0.6-0.4-1.1-0.9-1.7-1.3c-0.4-0.3-0.7-0.5-0.8-0.5c-0.1,0-0.2,0-0.3,0.1C16.1,38.8,15.9,39.1,15.5,39.6z"/>
		<path fill="#FFFFFF" d="M34.4,33.5l0.4,0.4c-0.8,0.8-1.4,1.3-1.6,1.5l-1.7,1.8l-0.4-0.4c0.4-0.4,0.7-0.7,0.7-0.9
			c0.1-0.1,0.1-0.2,0.1-0.3c0-0.1-0.2-0.3-0.5-0.6c-0.1-0.1-0.6-0.6-1.6-1.6l-2.6-2.6c-0.5-0.5-1-1-1.5-1.5
			c-0.4-0.3-0.6-0.5-0.7-0.5c-0.1,0-0.2,0-0.4,0.1c-0.1,0.1-0.4,0.3-0.9,0.8l-0.4-0.4c0.7-0.7,1.3-1.2,1.7-1.6
			c0.4-0.4,0.9-0.9,1.6-1.7l0.4,0.4c-0.4,0.5-0.7,0.7-0.7,0.9c-0.1,0.1-0.1,0.2-0.1,0.3c0,0.1,0.2,0.3,0.5,0.6
			c0.1,0.1,0.6,0.6,1.6,1.6l2.6,2.6c0.5,0.5,1,1,1.5,1.5c0.4,0.3,0.6,0.5,0.7,0.6c0.1,0,0.2,0,0.4-0.1
			C33.6,34.2,33.9,33.9,34.4,33.5z"/>
		<path fill="#FFFFFF" d="M30,23.4L29.7,23c0.2-0.1,0.4-0.3,0.8-0.6l1.2-0.9c0.2-0.2,0.6-0.5,1.1-0.9c0.6-0.5,1-0.8,1.1-0.9
			c0.8-0.6,1.4-1,1.9-1.2c0.5-0.1,0.9-0.1,1.4,0c0.5,0.2,0.8,0.4,1.1,0.8c0.3,0.4,0.5,0.8,0.5,1.3c0.1,0.5,0,1-0.1,1.5
			c-0.2,0.5-0.5,1.1-1,1.6c0.2,0.1,0.7,0.2,1.5,0.4l3.2,0.8c0.9,0.2,1.4,0.3,1.6,0.4c0.1,0,0.1,0,0.2,0c0.1,0,0.2-0.1,0.4-0.3
			l0.3,0.4c-0.3,0.2-0.6,0.4-0.9,0.6c-0.2,0.2-0.5,0.4-0.9,0.8c-0.5-0.1-1.5-0.4-2.8-0.8c-0.8-0.2-1.4-0.4-1.9-0.5
			c-0.9-0.2-1.7-0.4-2.5-0.5l-0.1-0.2c0.2-0.2,0.4-0.3,0.5-0.4c0.8-0.6,1.2-1.2,1.3-1.9c0.1-0.7-0.1-1.3-0.5-1.9
			c-0.4-0.5-0.9-0.8-1.5-0.8c-0.6,0-1.2,0.2-1.9,0.8c-0.4,0.3-0.8,0.7-1.1,1.2c0.2,0.2,0.3,0.5,0.5,0.7c0,0.1,0.5,0.7,1.4,1.9
			l2.2,2.8c0.4,0.6,0.9,1.1,1.3,1.6c0.3,0.4,0.5,0.6,0.6,0.6c0.1,0,0.2,0,0.4,0c0.1,0,0.5-0.3,0.9-0.6l0.3,0.4
			c-0.6,0.4-1.2,0.8-1.7,1.2c-0.4,0.3-1.1,0.9-2,1.6l-0.3-0.4c0.5-0.4,0.8-0.7,0.8-0.8c0.1-0.1,0.1-0.2,0.1-0.3
			c0-0.1-0.1-0.3-0.4-0.7c-0.1-0.1-0.5-0.7-1.4-1.8L33.3,25c-0.4-0.6-0.9-1.1-1.3-1.7c-0.3-0.4-0.5-0.6-0.6-0.6c-0.1,0-0.2,0-0.4,0
			C30.8,22.8,30.5,23,30,23.4z"/>
		<path fill="#FFFFFF" d="M50.7,21.4l0.3,0.4c-1,0.6-1.6,0.9-1.9,1.1L47,24.2l-0.3-0.4c0.5-0.3,0.8-0.6,0.9-0.7
			c0.1-0.1,0.1-0.2,0.1-0.3c0-0.1-0.1-0.4-0.3-0.7c-0.1-0.1-0.4-0.8-1.1-2L44.5,17c-0.4-0.6-0.7-1.2-1.1-1.8
			c-0.3-0.4-0.5-0.7-0.6-0.7c-0.1,0-0.2-0.1-0.4,0c-0.1,0-0.5,0.2-1,0.5l-0.3-0.4c0.9-0.5,1.6-0.9,2-1.2c0.5-0.3,1.1-0.7,2-1.3
			l0.3,0.4c-0.5,0.3-0.8,0.6-0.9,0.7c-0.1,0.1-0.1,0.2-0.1,0.3c0,0.1,0.1,0.4,0.3,0.7c0,0.1,0.4,0.7,1.1,2l1.9,3.2
			c0.4,0.6,0.7,1.2,1.1,1.8c0.3,0.4,0.5,0.7,0.6,0.7c0.1,0.1,0.2,0.1,0.4,0C49.9,21.9,50.2,21.7,50.7,21.4z"/>
		<path fill="#FFFFFF" d="M53.4,20.3l-0.2-0.5c0.5-0.2,0.8-0.4,1-0.5c0.1-0.1,0.1-0.1,0.1-0.2c0-0.1-0.1-0.4-0.2-0.8
			c-0.2-0.7-0.5-1.2-0.7-1.7l-2.5-6c-0.1-0.2-0.1-0.3-0.2-0.3c-0.1-0.1-0.2-0.1-0.4-0.2c-0.1,0-0.2,0-0.4,0c-0.1,0-0.4,0.1-0.8,0.3
			l-0.2-0.5c0.9-0.3,1.4-0.6,1.6-0.6c0.4-0.2,0.7-0.3,1.1-0.5c0.6,0.4,1.1,0.6,1.4,0.8l2.3,1.2l3.3,1.7c1.1,0.6,1.9,1,2.5,1.3
			c0.4,0.2,0.7,0.4,1,0.5L59.9,9c-0.2-0.5-0.5-1-0.8-1.7c-0.2-0.4-0.3-0.6-0.4-0.7c-0.1,0-0.1-0.1-0.2-0.1c-0.2,0-0.5,0.1-1.1,0.3
			l-0.2-0.5c0.6-0.2,1.2-0.5,1.8-0.7C59.5,5.4,60,5.2,60.5,5l0.2,0.5c-0.5,0.2-0.8,0.4-1,0.5c-0.1,0.1-0.1,0.1-0.1,0.2
			c0,0.1,0.1,0.4,0.2,0.8c0.2,0.7,0.5,1.2,0.7,1.7l1.5,3.5c0.3,0.7,0.9,2,1.7,4l-0.8,0.1l-0.2,0c0,0-0.1,0-0.1,0
			c0,0-0.2-0.1-0.4-0.2c-0.6-0.3-1-0.5-1.3-0.7l-1.5-0.8l-7.9-4.1l2.4,5.7c0.2,0.5,0.5,1,0.8,1.7c0.2,0.4,0.3,0.6,0.4,0.7
			c0.1,0.1,0.1,0.1,0.2,0.1c0.2,0,0.5-0.1,1.1-0.3l0.2,0.5c-0.4,0.1-0.9,0.3-1.4,0.6C54.6,19.7,54,20,53.4,20.3z"/>
		<path fill="#FFFFFF" d="M78.1,11.6c-0.7,0.5-1.3,0.8-1.8,1c-0.8,0.4-1.7,0.6-2.5,0.8c-1.2,0.3-2.3,0.3-3.4,0
			c-1-0.3-1.9-0.8-2.6-1.5c-0.7-0.7-1.2-1.7-1.4-2.8c-0.2-1-0.2-1.9,0-2.7c0.2-0.8,0.5-1.5,1-2c0.4-0.6,0.9-1,1.4-1.4
			c0.8-0.5,1.8-0.9,3-1.2c0.6-0.1,1.2-0.2,1.9-0.2s1.4,0,2.3,0c0,0.3,0,0.6,0,0.8c0,0.3,0.1,0.8,0.2,1.6l-0.5,0.1l-0.2-0.9
			c0-0.1-0.1-0.2-0.1-0.3c0-0.1-0.1-0.2-0.2-0.3c-0.2-0.2-0.4-0.3-0.8-0.4c-0.6-0.1-1-0.1-1.4-0.1c-0.4,0-0.8,0.1-1.3,0.2
			c-1,0.2-1.8,0.6-2.4,1.2c-0.6,0.6-1,1.3-1.2,2.2c-0.2,0.9-0.2,1.8,0,2.7c0.2,1,0.6,1.9,1.3,2.6c0.6,0.7,1.3,1.2,2.2,1.5
			c0.8,0.3,1.7,0.3,2.7,0.1c0.5-0.1,0.9-0.2,1.3-0.4c0.4-0.2,0.7-0.4,1-0.6c0-0.2,0-0.6-0.2-1l-0.2-0.9C76,9.2,75.9,9,75.9,8.9
			c-0.1-0.1-0.2-0.1-0.4-0.1c-0.2,0-0.7,0.1-1.4,0.2l-0.1-0.5l2.4-0.5c0.5-0.1,0.9-0.2,1.4-0.4l0.1,0.4l-0.5,0.5
			c0.1,0.6,0.1,1.1,0.2,1.6C77.8,10.6,77.9,11.1,78.1,11.6z"/>
		<path fill="#FFFFFF" d="M88.3,11.3l0-0.4c0.3-0.1,0.5-0.3,0.6-0.4c0.1,0,0.1-0.1,0.1-0.2c0-0.1,0.1-0.5,0.1-1
			c0-0.7,0.1-1.2,0.1-1.3l0.1-4.3c0-0.7,0-1.4,0-2.1c0-0.5,0-0.8-0.1-0.9c-0.1-0.1-0.2-0.2-0.3-0.2c-0.1,0-0.5-0.1-1.1-0.1l0-0.5
			c1.3,0.1,2.1,0.1,2.4,0.1c0.3,0,1.1,0,2.3,0l0,0.5c-0.6,0-1,0-1.2,0.1c-0.1,0-0.2,0.1-0.3,0.2c-0.1,0.1-0.1,0.4-0.1,0.8
			c0,0.1,0,0.9-0.1,2.3l-0.1,5.3c0,0.6,0,1,0,1.4c0.6,0,1.2,0.1,1.8,0.1c1.5,0,2.5-0.1,3.2-0.2c0.1-0.2,0.1-0.3,0.2-0.5l0.3-1.3
			l0.5,0c-0.1,0.8-0.3,1.7-0.4,2.8c-0.2,0-0.4,0.1-0.5,0.1c-0.3,0-0.7,0-1.3,0l-4.7-0.1C89.4,11.3,88.9,11.3,88.3,11.3z"/>
		<path fill="#FFFFFF" d="M99.7,11.7l0.1-0.5c0.6,0.1,0.9,0.1,1.1,0c0.1,0,0.1-0.1,0.2-0.1c0.1-0.1,0.2-0.4,0.2-0.8
			c0.1-0.7,0.3-1.3,0.3-1.8l0.6-4c0.1-0.7,0.2-1.4,0.3-2.1c0.1-0.5,0.1-0.8,0-0.9c0-0.1-0.1-0.2-0.3-0.3c-0.1-0.1-0.5-0.2-1.1-0.3
			l0.1-0.5l2.2,0.4l2.4,0.3c1.1,0.2,2,0.3,2.5,0.4c0.5,0.1,1,0.2,1.5,0.3c-0.1,0.3-0.2,0.5-0.3,0.8c0,0-0.2,0.6-0.4,1.6l-0.5-0.1
			c0.1-0.5,0.1-1,0.1-1.5c-0.3-0.2-0.6-0.3-0.9-0.4c-0.6-0.2-1.2-0.3-1.7-0.4c-0.1,0-0.4-0.1-0.8-0.1c-0.4,0-0.8-0.1-0.9-0.1
			c-0.1,0.6-0.2,1.1-0.3,1.6l-0.5,2.6c0.6,0.1,1.2,0.2,1.7,0.3c0.6,0.1,1.2,0.2,1.6,0.2c0.2,0,0.3,0,0.3-0.1
			c0.1-0.1,0.1-0.3,0.2-0.6l0.1-0.5l0.5,0.1l0,0.1l-0.3,1.6L107.5,9L107,8.9l0.1-0.5c0.1-0.4,0.1-0.6,0-0.7c0-0.1-0.1-0.2-0.3-0.3
			c-0.3-0.1-0.9-0.2-1.7-0.4c-0.4-0.1-0.9-0.1-1.5-0.2c-0.1,0.5-0.2,1.3-0.4,2.3c-0.2,1-0.3,1.7-0.3,2.2c0.7,0.2,1.6,0.3,2.5,0.5
			c0.7,0.1,1.1,0.2,1.4,0.2c0.3,0,0.6,0,0.8-0.1c0.1-0.2,0.2-0.4,0.3-0.6c0.2-0.4,0.3-0.8,0.4-1l0.5,0.1c-0.3,1-0.5,1.9-0.6,2.6
			c-0.5,0-1-0.1-1.7-0.2l-4.7-0.8C101.7,12,101,11.9,99.7,11.7z"/>
		<path fill="#FFFFFF" d="M111.1,13.6l0.2-0.5c0.4,0.1,0.7,0.2,0.8,0.2c0.1,0,0.2,0,0.3-0.1c0.1-0.1,0.3-0.2,0.6-0.5
			c0.2-0.2,0.7-0.8,1.7-1.8l3.3-3.6c0.4-0.4,1.2-1.3,2.4-2.7l0.5,0.2l0.7,8.7c0.1,1.4,0.2,2.3,0.3,2.7c0,0.2,0.1,0.4,0.2,0.5
			c0.1,0.1,0.3,0.2,0.7,0.3l-0.2,0.5c-0.8-0.3-1.3-0.5-1.6-0.6l-2.5-0.7l0.2-0.5c0.6,0.2,0.9,0.3,1,0.3c0.1,0,0.2,0,0.3,0
			c0.1,0,0.1-0.1,0.1-0.2c0-0.1,0-0.3,0-0.5l-0.2-2.6l-4.4-1.5l-1.5,1.7c-0.3,0.3-0.4,0.5-0.5,0.7c0,0.1,0,0.1,0,0.2
			c0,0.1,0.1,0.2,0.2,0.2c0.2,0.1,0.5,0.2,1,0.4l-0.2,0.5c-0.8-0.3-1.5-0.6-1.9-0.7C112.3,13.9,111.7,13.8,111.1,13.6z M116.1,10.6
			l3.8,1.3l-0.4-5.2L116.1,10.6z"/>
		<path fill="#FFFFFF" d="M125.2,18.7l0.2-0.3c0.4,0,0.7,0,0.9-0.1c0.2-0.3,0.5-0.7,0.8-1.3c0.6-0.9,0.9-1.6,1.1-2l1.6-2.8
			c0.2-0.5,0.5-1,0.8-1.6c0.2-0.4,0.3-0.7,0.3-0.8c0-0.1,0-0.1-0.1-0.2c-0.1-0.1-0.4-0.4-0.9-0.6l0.2-0.4c0.7,0.4,1.3,0.7,1.8,1
			c0.4,0.2,1,0.5,1.7,0.9c0.7,0.4,1.2,0.6,1.6,0.9c1.1,0.6,2,1.3,2.5,1.9c0.5,0.7,0.9,1.5,1,2.4c0.1,0.9-0.1,1.9-0.6,2.9
			c-0.4,0.7-0.9,1.3-1.4,1.8c-0.6,0.5-1.2,0.9-1.8,1.1c-0.6,0.2-1.3,0.4-1.9,0.4c-0.6,0-1.2,0-1.7-0.2c-0.6-0.1-1.3-0.4-2.1-0.9
			c-0.3-0.2-0.7-0.4-1.1-0.7c-0.6-0.4-1-0.6-1.2-0.7C126.4,19.3,125.9,19,125.2,18.7z M127.8,19.1c0.5,0.4,1,0.7,1.5,1
			c0.6,0.3,1.1,0.6,1.6,0.7c0.5,0.1,1,0.2,1.4,0.2c0.4,0,0.9-0.1,1.4-0.3c0.5-0.2,1-0.5,1.5-1c0.5-0.5,0.9-1,1.2-1.6
			c0.5-0.9,0.7-1.7,0.8-2.5c0-0.8-0.2-1.5-0.6-2.2c-0.4-0.7-1.2-1.3-2.3-1.9c-0.6-0.3-1.2-0.6-1.8-0.8c-0.1,0.2-0.4,0.6-0.7,1.2
			l-0.6,1l-1.5,2.8l-1.2,2.2C128.3,18.1,128,18.5,127.8,19.1z"/>
		<path fill="#FFFFFF" d="M137.6,25.8l0.3-0.4c0.4,0.3,0.8,0.5,0.9,0.6c0.1,0,0.2,0,0.2,0c0.1-0.1,0.3-0.2,0.6-0.6
			c0.5-0.5,0.8-1,1.2-1.4l2.5-3.2c0.4-0.6,0.9-1.1,1.3-1.7c0.3-0.4,0.5-0.7,0.5-0.8c0-0.1,0-0.2-0.1-0.3c-0.1-0.1-0.4-0.4-0.9-0.8
			l0.3-0.4l1.8,1.4l1.9,1.4c0.9,0.7,1.6,1.2,2,1.5c0.4,0.3,0.8,0.7,1.1,1c-0.3,0.2-0.5,0.4-0.6,0.5c0,0-0.4,0.4-1.1,1.2l-0.4-0.3
			c0.3-0.4,0.6-0.8,0.8-1.2c-0.2-0.3-0.4-0.5-0.6-0.8c-0.4-0.4-0.9-0.8-1.3-1.2c-0.1-0.1-0.3-0.2-0.7-0.5c-0.4-0.3-0.6-0.4-0.8-0.5
			c-0.4,0.5-0.7,0.9-1.1,1.3l-1.7,2.1c0.5,0.4,0.9,0.8,1.3,1.1c0.5,0.4,0.9,0.7,1.3,0.9c0.1,0.1,0.3,0.1,0.3,0.1
			c0.1,0,0.2-0.2,0.5-0.4l0.4-0.4l0.4,0.3l-0.1,0.1l-1,1.3l-1.1,1.5l-0.4-0.3l0.3-0.4c0.2-0.3,0.4-0.5,0.4-0.6c0-0.1,0-0.2-0.2-0.4
			c-0.2-0.2-0.6-0.6-1.3-1.2c-0.3-0.2-0.7-0.5-1.2-0.9c-0.3,0.4-0.8,1-1.5,1.8c-0.6,0.8-1.1,1.4-1.3,1.8c0.6,0.5,1.2,1.1,2,1.6
			c0.5,0.4,0.9,0.7,1.2,0.8c0.3,0.1,0.5,0.2,0.8,0.3c0.2-0.1,0.3-0.2,0.6-0.4c0.4-0.3,0.7-0.5,0.8-0.7l0.4,0.3
			c-0.8,0.8-1.4,1.4-1.8,2c-0.4-0.2-0.9-0.5-1.4-0.9l-3.7-3C139.2,27,138.7,26.6,137.6,25.8z"/>
		<path fill="#FFFFFF" d="M154.5,25.7l0.4-0.4c0.1,0.2,0.4,0.4,0.6,0.7l1,1.1c0.2,0.2,0.5,0.6,1,1c0.6,0.6,0.9,0.9,1,1
			c0.7,0.7,1.1,1.3,1.3,1.8c0.2,0.5,0.2,0.9,0.1,1.4c-0.1,0.5-0.4,0.9-0.7,1.2c-0.3,0.3-0.7,0.5-1.2,0.7c-0.5,0.1-1,0.1-1.5,0
			c-0.5-0.1-1.1-0.4-1.7-0.8c0,0.2-0.1,0.7-0.3,1.5l-0.5,3.3c-0.1,0.9-0.2,1.4-0.2,1.6c0,0.1,0,0.1,0,0.2c0,0.1,0.1,0.2,0.3,0.4
			l-0.4,0.4c-0.2-0.3-0.5-0.6-0.7-0.8c-0.2-0.2-0.5-0.5-0.8-0.8c0.1-0.5,0.2-1.5,0.5-2.9c0.2-0.8,0.3-1.4,0.3-2
			c0.1-0.9,0.2-1.7,0.3-2.5l0.2-0.1c0.2,0.2,0.3,0.4,0.4,0.5c0.7,0.7,1.3,1.1,2,1.1c0.7,0,1.3-0.2,1.8-0.7c0.5-0.4,0.7-1,0.7-1.5
			c0-0.6-0.3-1.2-0.9-1.8c-0.4-0.4-0.8-0.7-1.3-1c-0.2,0.2-0.4,0.4-0.6,0.5c-0.1,0-0.6,0.6-1.7,1.6l-2.6,2.4c-0.5,0.5-1,1-1.5,1.5
			c-0.4,0.4-0.6,0.6-0.6,0.7c0,0.1,0,0.2,0.1,0.4c0.1,0.1,0.3,0.4,0.7,0.9l-0.4,0.4c-0.5-0.6-1-1.1-1.4-1.5c-0.4-0.4-1-1-1.8-1.8
			l0.4-0.4c0.4,0.4,0.7,0.7,0.8,0.8c0.1,0.1,0.2,0.1,0.3,0.1c0.1,0,0.3-0.2,0.6-0.4c0.1-0.1,0.6-0.6,1.7-1.5l2.7-2.5
			c0.5-0.5,1-1,1.5-1.5c0.4-0.4,0.5-0.6,0.6-0.7c0-0.1,0-0.2-0.1-0.4C155.2,26.4,154.9,26.1,154.5,25.7z"/>
		<path fill="#FFFFFF" d="M155.7,42.5c0.5-0.2,1.2-0.7,2.1-1.3l0.3,0.4c-0.6,0.5-1,0.8-1,0.9c-0.1,0.1-0.1,0.3-0.1,0.6
			c0,0.3,0.1,0.6,0.2,1c0.1,0.4,0.3,0.7,0.5,1c0.3,0.4,0.7,0.8,1.2,1c0.5,0.2,0.9,0.3,1.4,0.2c0.4-0.1,0.9-0.2,1.2-0.5
			c0.3-0.2,0.5-0.4,0.7-0.7c0.1-0.2,0.2-0.5,0.2-0.7c0-0.3-0.1-0.5-0.2-0.8c-0.1-0.2-0.3-0.5-0.6-1.1c-0.3-0.5-0.5-1-0.7-1.4
			c-0.2-0.5-0.3-1-0.2-1.3c0-0.3,0.2-0.7,0.4-1c0.2-0.3,0.5-0.6,0.8-0.9c0.5-0.4,1.1-0.6,1.7-0.6c0.6-0.1,1.3,0.1,1.9,0.4
			c0.6,0.3,1.1,0.8,1.6,1.4c0.3,0.4,0.5,0.8,0.7,1.3c0.2,0.5,0.4,1,0.4,1.5c-0.3,0.1-0.6,0.3-0.9,0.4c-0.3,0.1-0.6,0.4-1.1,0.7
			l-0.3-0.4c0.7-0.5,1-0.8,1-0.8c0.1-0.2,0.1-0.5,0.1-0.7c-0.1-0.6-0.3-1.2-0.6-1.7c-0.4-0.6-1-1-1.6-1.1c-0.6-0.1-1.3,0.1-1.9,0.5
			c-0.4,0.3-0.6,0.5-0.7,0.8c-0.1,0.3-0.1,0.6,0,1.1c0.1,0.3,0.3,0.7,0.6,1.3c0.3,0.6,0.6,1.1,0.8,1.6c0.2,0.5,0.2,0.9,0.2,1.2
			c0,0.3-0.1,0.6-0.3,0.9c-0.2,0.3-0.5,0.6-0.8,0.9c-0.9,0.6-1.9,0.8-3,0.5c-1.1-0.3-2.1-1-2.9-2.1
			C156.2,44.3,155.8,43.4,155.7,42.5z"/>
		<path fill="#FFFFFF" d="M172.4,53.7l-0.2-0.5c1.2-0.5,2-0.9,2.4-1.1c0.2,0.5,0.5,1.4,1,2.5c0.4,0.9,0.6,1.6,0.8,1.9
			c0.1,0.3,0.5,1.1,1,2.3c0.4,0.9,0.7,1.5,0.9,1.9c-0.6,0.2-1.4,0.5-2.5,0.9l-0.2-0.5l0.7-0.4c0.4-0.2,0.6-0.4,0.7-0.4
			c0.1,0,0.1-0.1,0.1-0.1c0,0,0-0.1,0-0.1c0-0.1-0.1-0.3-0.3-0.8c-0.2-0.4-0.3-0.8-0.4-1l-0.4-0.9c-0.5,0.2-1.1,0.4-1.9,0.7
			l-4.3,1.8c-0.7,0.3-1.3,0.6-1.9,0.9c-0.5,0.2-0.7,0.4-0.8,0.5c-0.1,0.1-0.1,0.2-0.1,0.4c0,0.1,0.1,0.5,0.4,1.1l-0.5,0.2
			c-0.3-0.9-0.6-1.6-0.8-2c-0.1-0.2-0.4-0.9-1-2.3l0.5-0.2c0.3,0.6,0.4,0.9,0.5,1c0.1,0.1,0.2,0.2,0.3,0.2c0.1,0,0.4,0,0.8-0.2
			c0.1,0,0.8-0.3,2.1-0.9l4.3-1.8c0.2-0.1,0.4-0.2,0.7-0.3l1.2-0.6l-0.5-1.1c-0.3-0.6-0.5-1.1-0.7-1.5c-0.1-0.1-0.1-0.2-0.2-0.2
			c-0.1,0-0.4,0-0.9,0.2L172.4,53.7z"/>
		<path fill="#FFFFFF" d="M174.1,65.9c0.8-0.2,1.6-0.3,2.3-0.2c0.8,0.1,1.5,0.3,2.2,0.8c0.7,0.4,1.3,1,1.7,1.6
			c0.5,0.6,0.8,1.4,1,2.4c0.2,0.8,0.3,1.7,0.2,2.4c-0.1,0.8-0.2,1.4-0.5,1.9c-0.3,0.5-0.6,1-1,1.4c-0.3,0.3-0.7,0.5-1.1,0.8
			c-0.4,0.2-0.9,0.4-1.5,0.6c-1.7,0.4-3.3,0.2-4.8-0.7c-1.4-0.9-2.4-2.2-2.8-4c-0.2-0.8-0.3-1.6-0.2-2.4c0.1-0.8,0.3-1.5,0.7-2.1
			c0.4-0.6,0.9-1.1,1.6-1.6C172.7,66.4,173.4,66.1,174.1,65.9z M175.2,67.4c-0.5,0.1-1,0.3-1.5,0.5c-0.5,0.2-0.9,0.5-1.2,0.7
			c-0.6,0.4-1,0.9-1.3,1.4c-0.3,0.5-0.5,1-0.6,1.6c-0.1,0.5,0,1.1,0.1,1.7c0.2,0.8,0.6,1.5,1.1,2c0.6,0.5,1.2,0.8,2,0.9
			c0.8,0.1,1.7,0.1,2.7-0.2c0.8-0.2,1.5-0.5,2.2-0.9c0.4-0.2,0.7-0.5,1-0.8c0.3-0.3,0.5-0.6,0.7-1c0.2-0.4,0.3-0.8,0.3-1.4
			c0.1-0.5,0-1.1-0.1-1.7c-0.2-0.8-0.6-1.5-1.1-2c-0.5-0.5-1.2-0.9-1.9-1C176.9,67.1,176,67.2,175.2,67.4z"/>
	</g>
	<g>
		<path fill="#FFFFFF" d="M8.6,111l-0.1-0.5c1.2-0.3,2.1-0.6,2.5-0.8c0.1,0.6,0.3,1.4,0.6,2.7c0.2,1,0.4,1.6,0.5,1.9
			c0.1,0.3,0.3,1.2,0.7,2.4c0.3,0.9,0.5,1.6,0.6,2c-0.6,0.1-1.5,0.3-2.6,0.6l-0.1-0.5l0.7-0.3c0.4-0.2,0.7-0.3,0.7-0.3
			c0.1,0,0.1-0.1,0.1-0.1c0,0,0-0.1,0-0.1c0-0.1-0.1-0.3-0.1-0.8c-0.1-0.4-0.2-0.8-0.2-1.1l-0.3-0.9c-0.5,0.1-1.2,0.2-2,0.5
			l-4.5,1.2c-0.7,0.2-1.4,0.4-2,0.6c-0.5,0.1-0.8,0.3-0.8,0.3c-0.1,0.1-0.1,0.2-0.1,0.3c0,0.1,0.1,0.5,0.2,1.1l-0.5,0.1
			c-0.2-0.9-0.4-1.6-0.5-2.1c-0.1-0.2-0.3-1-0.7-2.4l0.5-0.1c0.2,0.6,0.3,1,0.4,1.1c0.1,0.1,0.2,0.2,0.3,0.2c0.1,0,0.4,0,0.8-0.1
			c0.1,0,0.8-0.2,2.2-0.6l4.5-1.2c0.2-0.1,0.4-0.1,0.7-0.2l1.3-0.4l-0.3-1.1c-0.2-0.7-0.3-1.2-0.5-1.6c0-0.1-0.1-0.2-0.2-0.2
			c-0.1,0-0.4,0-0.9,0.1L8.6,111z"/>
		<path fill="#FFFFFF" d="M13.5,120.6l0.5-0.2c0.1,0.2,0.2,0.5,0.4,0.9l0.6,1.4c0.1,0.3,0.3,0.7,0.6,1.3c0.4,0.7,0.6,1.2,0.6,1.3
			c0.4,0.9,0.6,1.6,0.6,2.1c0,0.5-0.1,0.9-0.4,1.3c-0.3,0.4-0.6,0.7-1.1,0.9c-0.4,0.2-0.9,0.2-1.4,0.2c-0.5,0-1-0.2-1.4-0.5
			c-0.4-0.3-0.9-0.8-1.3-1.4c-0.1,0.2-0.4,0.6-0.8,1.4l-1.6,2.9C8.3,133,8,133.5,8,133.6c0,0.1,0,0.1,0,0.2c0,0.1,0.1,0.2,0.2,0.5
			l-0.5,0.2c-0.1-0.4-0.2-0.7-0.4-1c-0.1-0.3-0.3-0.6-0.5-1c0.2-0.5,0.7-1.3,1.5-2.5c0.4-0.7,0.7-1.2,1-1.7c0.4-0.8,0.8-1.5,1.1-2.2
			l0.3,0c0.1,0.3,0.2,0.5,0.2,0.6c0.4,0.9,0.9,1.5,1.5,1.8c0.6,0.3,1.3,0.3,2,0c0.6-0.3,1-0.7,1.2-1.2c0.2-0.5,0.1-1.2-0.2-2
			c-0.2-0.5-0.5-1-0.9-1.4c-0.3,0.1-0.5,0.2-0.8,0.3c-0.1,0-0.8,0.3-2.2,0.9l-3.2,1.4c-0.7,0.3-1.3,0.6-1.9,0.9
			c-0.5,0.2-0.7,0.4-0.8,0.5c-0.1,0.1-0.1,0.2-0.1,0.4c0,0.1,0.1,0.5,0.4,1.1l-0.5,0.2c-0.3-0.7-0.5-1.4-0.8-1.9
			c-0.2-0.5-0.6-1.2-1.1-2.3l0.5-0.2c0.3,0.6,0.4,0.9,0.5,1c0.1,0.1,0.2,0.2,0.3,0.2c0.1,0,0.4,0,0.8-0.2c0.1,0,0.8-0.3,2.1-0.9
			l3.4-1.5c0.7-0.3,1.3-0.6,1.9-0.9c0.5-0.2,0.7-0.4,0.8-0.5c0.1-0.1,0.1-0.2,0.1-0.4C13.8,121.6,13.7,121.2,13.5,120.6z"/>
		<path fill="#FFFFFF" d="M9.1,137.2l0.5-0.3c0.2,0.4,0.4,0.6,0.5,0.6c0.1,0.1,0.2,0.1,0.3,0.2c0.1,0,0.4,0,0.7,0
			c0.2,0,1-0.1,2.4-0.3l4.9-0.7c0.5-0.1,1.7-0.3,3.5-0.6l0.3,0.4l-4.9,7.1c-0.8,1.2-1.3,1.9-1.5,2.2c-0.1,0.2-0.1,0.3-0.1,0.5
			c0,0.1,0.1,0.4,0.3,0.7l-0.5,0.3c-0.4-0.7-0.7-1.2-0.9-1.5l-1.4-2.1l0.5-0.3c0.3,0.5,0.5,0.8,0.6,0.9c0.1,0.1,0.2,0.1,0.2,0.2
			c0.1,0,0.1,0,0.2,0c0.1-0.1,0.2-0.2,0.3-0.3l1.5-2.1l-2.5-3.9l-2.2,0.4c-0.4,0.1-0.7,0.1-0.8,0.2c-0.1,0-0.1,0.1-0.1,0.2
			c0,0.1,0,0.2,0,0.3c0.1,0.2,0.2,0.5,0.5,0.9l-0.5,0.3c-0.4-0.8-0.8-1.4-1-1.7C9.8,138.2,9.4,137.7,9.1,137.2z M14.8,138l2.1,3.4
			l3-4.2L14.8,138z"/>
		<path fill="#FFFFFF" d="M17.7,150.4l0.4-0.3c0.4,0.4,0.7,0.7,0.8,0.7c0.1,0,0.1,0,0.2,0c0.1,0,0.3-0.2,0.7-0.5
			c0.5-0.4,1-0.8,1.4-1.2l4.8-4.3c0.1-0.1,0.2-0.2,0.2-0.3c0-0.1,0.1-0.2,0.1-0.4c0-0.1,0-0.2-0.1-0.4c-0.1-0.1-0.2-0.3-0.5-0.6
			l0.4-0.3c0.6,0.7,1,1.1,1.1,1.3c0.3,0.3,0.5,0.6,0.8,0.9c-0.1,0.7-0.2,1.3-0.3,1.6l-0.4,2.6l-0.6,3.7c-0.2,1.2-0.3,2.1-0.4,2.8
			c-0.1,0.5-0.1,0.8-0.1,1.1l4.3-3.9c0.4-0.3,0.8-0.8,1.3-1.3c0.3-0.3,0.5-0.5,0.5-0.6c0-0.1,0-0.1,0-0.2c-0.1-0.2-0.3-0.5-0.6-0.9
			l0.4-0.3c0.4,0.5,0.8,1,1.3,1.4c0.4,0.4,0.8,0.9,1.1,1.2l-0.4,0.3c-0.4-0.4-0.7-0.7-0.8-0.7c-0.1,0-0.1,0-0.2,0
			c-0.1,0-0.3,0.2-0.7,0.5c-0.5,0.4-1,0.8-1.4,1.2l-2.8,2.6c-0.6,0.5-1.6,1.5-3.2,2.9l-0.4-0.8l-0.1-0.2c0,0,0-0.1,0-0.1
			c0,0,0-0.2,0-0.4c0.1-0.7,0.1-1.2,0.2-1.5l0.3-1.6l1.3-8.8l-4.6,4.1c-0.4,0.4-0.8,0.8-1.3,1.3c-0.3,0.3-0.5,0.5-0.5,0.6
			c0,0.1,0,0.2,0,0.2c0.1,0.2,0.3,0.5,0.6,0.9l-0.4,0.3c-0.3-0.4-0.6-0.8-1-1.2C18.7,151.4,18.2,150.9,17.7,150.4z"/>
		<path fill="#FFFFFF" d="M29.1,161.9c0.4-0.3,1-0.9,1.7-1.8l0.4,0.3c-0.5,0.6-0.7,1-0.8,1.1c0,0.1,0,0.4,0.1,0.6
			c0.1,0.3,0.2,0.6,0.5,0.9c0.2,0.3,0.5,0.6,0.8,0.9c0.4,0.3,0.9,0.6,1.4,0.7c0.5,0.1,1,0.1,1.4-0.1c0.4-0.2,0.8-0.4,1.1-0.8
			c0.2-0.3,0.4-0.5,0.5-0.8c0.1-0.3,0.1-0.5,0-0.8c-0.1-0.3-0.2-0.5-0.4-0.8c-0.1-0.1-0.4-0.4-0.8-0.9c-0.4-0.4-0.7-0.8-1-1.2
			c-0.3-0.5-0.5-0.9-0.6-1.2c-0.1-0.3,0-0.7,0.1-1.1c0.1-0.4,0.3-0.7,0.6-1.1c0.4-0.5,0.9-0.8,1.5-1.1c0.6-0.2,1.3-0.2,1.9-0.1
			c0.7,0.2,1.3,0.5,1.9,1c0.3,0.3,0.7,0.6,1,1.1c0.3,0.4,0.6,0.9,0.8,1.4c-0.3,0.2-0.5,0.4-0.7,0.6c-0.2,0.2-0.5,0.5-0.9,0.9
			l-0.4-0.3c0.5-0.6,0.8-1,0.8-1.1c0-0.2,0-0.5-0.1-0.7c-0.2-0.6-0.6-1.1-1-1.4c-0.6-0.5-1.2-0.7-1.9-0.6c-0.7,0.1-1.2,0.4-1.7,1
			c-0.3,0.3-0.4,0.7-0.5,1c0,0.3,0.1,0.6,0.3,1c0.2,0.3,0.5,0.6,0.9,1.1s0.9,0.9,1.2,1.4c0.3,0.4,0.5,0.8,0.5,1.1
			c0.1,0.3,0,0.6-0.1,1c-0.1,0.4-0.3,0.7-0.6,1c-0.7,0.8-1.6,1.2-2.8,1.3c-1.2,0-2.3-0.4-3.4-1.3C30.1,163.5,29.5,162.7,29.1,161.9z
			"/>
		<path fill="#FFFFFF" d="M43.2,159.9l0.3-0.4c0.7,0.5,1.2,0.9,1.7,1.2c0.3,0.2,0.9,0.6,1.8,1.1c0.9,0.5,1.5,0.9,1.8,1.1
			c0.3,0.2,0.6,0.4,0.9,0.6c0.3,0.2,0.5,0.3,0.7,0.5c-0.4,0.3-0.9,0.9-1.5,1.9l-0.4-0.3c0.3-0.6,0.5-1,0.6-1.4
			c-0.2-0.2-0.4-0.5-0.7-0.7c-0.3-0.3-0.7-0.5-1.2-0.8c-0.5-0.3-0.9-0.6-1.5-0.8c-0.2,0.2-0.3,0.4-0.5,0.6c-0.1,0.1-0.4,0.6-1,1.5
			l-1,1.5c0.5,0.3,0.9,0.6,1.3,0.9c0.6,0.4,1,0.6,1.4,0.8c0.1,0.1,0.3,0.1,0.3,0.1c0.1,0,0.2-0.2,0.5-0.5l0.3-0.4l0.4,0.3l-1,1.5
			l-1,1.7l-0.4-0.3l0.2-0.5c0.3-0.5,0.4-0.8,0.4-0.9c0-0.1-0.1-0.2-0.2-0.3c-0.2-0.2-0.8-0.6-1.7-1.2c-0.3-0.2-0.7-0.4-1-0.6
			l-0.9,1.4c-0.4,0.6-0.8,1.2-1.1,1.8c-0.3,0.4-0.4,0.7-0.4,0.8c0,0.1,0,0.2,0.1,0.3c0.1,0.1,0.4,0.3,0.9,0.7l-0.3,0.4
			c-0.5-0.4-1.1-0.8-1.7-1.1c-0.5-0.3-1.3-0.8-2.2-1.4l0.3-0.4c0.5,0.3,0.9,0.5,1,0.5c0.1,0,0.3,0,0.3,0c0.1-0.1,0.3-0.3,0.5-0.6
			c0.1-0.1,0.5-0.7,1.3-1.9l2-3.1c0.4-0.6,0.8-1.2,1.1-1.8c0.3-0.4,0.4-0.7,0.4-0.8c0-0.1,0-0.2-0.1-0.3
			C44.1,160.5,43.8,160.2,43.2,159.9z"/>
		<path fill="#FFFFFF" d="M49.7,170.1c0.3-0.8,0.8-1.4,1.3-2c0.5-0.5,1.2-1,1.9-1.2c0.8-0.3,1.5-0.4,2.3-0.4c0.8,0,1.6,0.3,2.5,0.6
			c0.8,0.4,1.5,0.8,2,1.3c0.6,0.5,1,1.1,1.2,1.6c0.3,0.6,0.4,1.1,0.4,1.7c0,0.4,0,0.9-0.1,1.4c-0.1,0.5-0.3,1-0.5,1.5
			c-0.7,1.6-1.9,2.7-3.5,3.3c-1.6,0.6-3.2,0.5-4.9-0.2c-0.8-0.3-1.4-0.8-2-1.3c-0.5-0.5-0.9-1.2-1.2-1.9c-0.2-0.7-0.3-1.4-0.2-2.2
			C49.2,171.6,49.4,170.8,49.7,170.1z M51.4,170.2c-0.2,0.5-0.4,0.9-0.5,1.5c-0.1,0.5-0.2,1-0.2,1.4c0,0.7,0.1,1.3,0.3,1.9
			c0.2,0.6,0.5,1,0.9,1.4c0.4,0.4,0.8,0.7,1.4,1c0.8,0.4,1.5,0.5,2.3,0.3c0.7-0.1,1.4-0.5,2-1c0.6-0.6,1.1-1.3,1.5-2.2
			c0.3-0.8,0.6-1.5,0.7-2.3c0.1-0.5,0-0.9,0-1.3c-0.1-0.4-0.2-0.8-0.4-1.2s-0.5-0.7-0.8-1.1c-0.4-0.4-0.8-0.7-1.4-0.9
			c-0.8-0.3-1.5-0.5-2.3-0.4c-0.7,0.1-1.4,0.4-2,0.9C52.3,168.7,51.8,169.4,51.4,170.2z"/>
		<path fill="#FFFFFF" d="M64.5,170.9l0.1-0.5c0.2,0.1,0.5,0.1,0.9,0.3l1.5,0.4c0.3,0.1,0.7,0.2,1.4,0.3c0.8,0.2,1.3,0.3,1.4,0.3
			c1,0.3,1.7,0.5,2.1,0.8c0.4,0.3,0.7,0.7,0.8,1.1c0.1,0.5,0.1,0.9,0,1.4c-0.1,0.4-0.3,0.8-0.7,1.2c-0.3,0.4-0.8,0.6-1.3,0.8
			c-0.5,0.2-1.1,0.2-1.9,0.2c0.1,0.2,0.3,0.7,0.6,1.4l1.2,3.1c0.4,0.9,0.6,1.3,0.6,1.5c0,0,0.1,0.1,0.1,0.1c0.1,0,0.2,0.1,0.5,0.2
			l-0.1,0.5c-0.4-0.1-0.7-0.3-1-0.3c-0.3-0.1-0.7-0.2-1.1-0.2c-0.2-0.5-0.6-1.4-1.1-2.7c-0.3-0.7-0.5-1.4-0.7-1.9
			c-0.4-0.8-0.7-1.6-1-2.3l0.1-0.2c0.3,0.1,0.5,0.2,0.6,0.2c0.9,0.3,1.7,0.2,2.3-0.1c0.6-0.3,1-0.8,1.2-1.5c0.2-0.6,0.1-1.2-0.2-1.7
			c-0.3-0.5-0.9-0.8-1.7-1.1c-0.5-0.1-1.1-0.2-1.6-0.2c-0.1,0.3-0.2,0.5-0.3,0.8c0,0.1-0.2,0.8-0.7,2.2l-0.9,3.4
			c-0.2,0.7-0.4,1.4-0.5,2c-0.1,0.5-0.2,0.8-0.1,0.9c0,0.1,0.1,0.2,0.2,0.3c0.1,0.1,0.5,0.2,1.1,0.4l-0.1,0.5
			c-0.7-0.2-1.4-0.4-2-0.6c-0.5-0.1-1.3-0.3-2.5-0.6l0.1-0.5c0.6,0.2,1,0.2,1.1,0.2c0.1,0,0.3,0,0.3-0.1c0.1-0.1,0.2-0.3,0.3-0.7
			c0-0.1,0.2-0.8,0.6-2.2l1-3.6c0.2-0.7,0.4-1.4,0.5-2c0.1-0.5,0.2-0.8,0.1-0.9c0-0.1-0.1-0.2-0.2-0.3
			C65.5,171.2,65.1,171.1,64.5,170.9z"/>
		<path fill="#FFFFFF" d="M75.9,174l0-0.5c0.6,0.1,1.1,0.1,1.6,0.2c0.5,0,1,0.1,1.5,0.1c0.4,1.1,0.7,2.1,1,2.9l2.4,6.5l3.2-5.4
			c0.9-1.5,1.5-2.5,1.8-3.2c0.6,0.1,1,0.1,1.4,0.2c0.4,0,0.9,0.1,1.7,0.1l0,0.5c-0.6,0-1-0.1-1.2,0c-0.1,0-0.2,0.1-0.3,0.2
			c-0.1,0.1-0.1,0.4-0.2,0.8c0,0.1-0.1,0.9-0.2,2.2l-0.3,3.7c-0.1,0.7-0.1,1.4-0.2,2.1c0,0.5,0,0.8,0,0.9c0.1,0.1,0.1,0.2,0.3,0.2
			c0.1,0.1,0.5,0.1,1.1,0.2l0,0.5c-1.1-0.1-1.8-0.2-2.3-0.3c-0.4,0-1.1-0.1-2.4-0.1l0-0.5c0.6,0,1,0.1,1.2,0c0.1,0,0.2-0.1,0.3-0.2
			c0.1-0.1,0.1-0.4,0.2-0.8c0-0.1,0.1-0.9,0.2-2.2l0.5-5.8l-3.3,5.5c-0.5,0.9-0.9,1.5-1.2,2.1c-0.2,0.4-0.5,1-1,1.8l-0.3,0
			c-0.1-0.2-0.1-0.4-0.1-0.5l-0.4-1.2l-3.1-8.2l-0.5,5.6c-0.1,0.7-0.1,1.4-0.2,2.1c0,0.5,0,0.8,0,0.9c0.1,0.1,0.1,0.2,0.3,0.2
			c0.1,0.1,0.5,0.1,1.1,0.2l0,0.5l-1.9-0.2l-2-0.1l0-0.5c0.6,0,1,0.1,1.1,0c0.1,0,0.2-0.1,0.3-0.2c0.1-0.1,0.1-0.4,0.2-0.8
			c0-0.1,0.1-0.9,0.2-2.2l0.3-3.7c0.1-0.7,0.1-1.4,0.2-2.1c0-0.5,0-0.8,0-0.9c-0.1-0.1-0.1-0.2-0.3-0.2
			C76.9,174.2,76.6,174.1,75.9,174z"/>
		<path fill="#FFFFFF" d="M98.7,177l-0.5,0.1c-0.2-1.3-0.3-2.1-0.4-2.6c0.6-0.1,1.5-0.2,2.7-0.3c1-0.1,1.7-0.2,2-0.2
			c0.4,0,1.2-0.2,2.5-0.4c0.9-0.2,1.6-0.3,2.1-0.3c0,0.6,0.1,1.5,0.2,2.6l-0.5,0.1l-0.2-0.7c-0.1-0.5-0.2-0.7-0.2-0.8
			c0-0.1-0.1-0.1-0.1-0.1c0,0-0.1,0-0.1,0c-0.1,0-0.3,0-0.8,0c-0.5,0-0.8,0.1-1.1,0.1l-1,0.1c0,0.5,0.1,1.2,0.2,2.1l0.6,4.6
			c0.1,0.7,0.2,1.4,0.3,2.1c0.1,0.5,0.2,0.8,0.2,0.9c0.1,0.1,0.2,0.1,0.3,0.2c0.1,0,0.5,0,1.2-0.1l0.1,0.5c-0.9,0.1-1.7,0.2-2.1,0.2
			c-0.2,0-1,0.2-2.5,0.4l-0.1-0.5c0.6-0.1,1-0.2,1.1-0.2c0.1-0.1,0.2-0.1,0.2-0.2c0.1-0.1,0.1-0.4,0-0.8c0-0.1-0.1-0.9-0.3-2.2
			l-0.6-4.6c0-0.2-0.1-0.5-0.1-0.7l-0.2-1.3l-1.2,0.2c-0.7,0.1-1.2,0.2-1.6,0.3c-0.1,0-0.2,0.1-0.2,0.1c0,0.1-0.1,0.4,0,0.9
			L98.7,177z"/>
		<path fill="#FFFFFF" d="M108.8,173.4l-0.1-0.5l2.3-0.7l2.1-0.7l0.1,0.5c-0.6,0.2-1,0.3-1.1,0.4c-0.1,0.1-0.2,0.2-0.2,0.3
			c0,0.1,0,0.4,0.1,0.8c0,0.1,0.2,0.8,0.6,2.2l0.3,1.1c1-0.3,2.2-0.6,3.7-1.1c1.1-0.3,2-0.6,2.6-0.9l-0.3-1.1
			c-0.2-0.7-0.4-1.4-0.7-2c-0.2-0.5-0.3-0.8-0.4-0.8c-0.1-0.1-0.2-0.1-0.3-0.1c-0.1,0-0.5,0.1-1.1,0.3l-0.1-0.5
			c1.1-0.3,1.9-0.5,2.3-0.6c0.2,0,0.9-0.3,2.2-0.7l0.1,0.5c-0.6,0.2-0.9,0.3-1.1,0.4c-0.1,0.1-0.2,0.2-0.2,0.3c0,0.1,0,0.4,0.1,0.8
			c0,0.1,0.2,0.8,0.6,2.2l1.1,3.5c0.2,0.7,0.4,1.4,0.7,2c0.2,0.5,0.3,0.8,0.4,0.8c0.1,0.1,0.2,0.1,0.3,0.1c0.1,0,0.5-0.1,1.1-0.3
			l0.1,0.5c-1,0.3-1.8,0.5-2.4,0.7c-0.7,0.2-1.3,0.4-2,0.7l-0.1-0.5c0.6-0.2,1-0.3,1.1-0.4c0.1-0.1,0.2-0.2,0.2-0.3
			c0-0.1,0-0.4-0.1-0.8c0-0.1-0.2-0.8-0.6-2.2l-0.5-1.7c-1.4,0.4-2.5,0.7-3.3,0.9c-0.8,0.2-1.8,0.6-3,1l0.5,1.7
			c0.2,0.7,0.4,1.4,0.6,2c0.2,0.5,0.3,0.8,0.4,0.8c0.1,0.1,0.2,0.1,0.3,0.1c0.1,0,0.5-0.1,1.1-0.3l0.1,0.5c-0.7,0.2-1.4,0.4-2.1,0.6
			c-0.8,0.2-1.6,0.5-2.3,0.8l-0.1-0.5c0.6-0.2,0.9-0.3,1.1-0.4c0.1-0.1,0.2-0.2,0.2-0.3c0-0.1,0-0.4-0.1-0.8c0-0.1-0.2-0.8-0.6-2.2
			l-1.1-3.5c-0.2-0.7-0.4-1.4-0.6-2c-0.2-0.5-0.3-0.8-0.4-0.8c-0.1-0.1-0.2-0.1-0.3-0.1C109.8,173.1,109.4,173.2,108.8,173.4z"/>
		<path fill="#FFFFFF" d="M127.6,178.5l-0.2-0.5c0.5-0.2,0.8-0.4,0.9-0.6c0.1-0.1,0.1-0.1,0.1-0.2c0-0.1-0.1-0.4-0.3-0.8
			c-0.3-0.6-0.5-1.2-0.7-1.7l-1.8-3.7c-0.3-0.6-0.6-1.3-0.9-1.9c-0.2-0.4-0.4-0.7-0.5-0.8c-0.1-0.1-0.2-0.1-0.4-0.1
			c-0.1,0-0.5,0.2-1.1,0.4l-0.2-0.5l2.1-0.9l2.1-1.1c1-0.5,1.8-0.9,2.2-1.1c0.5-0.2,0.9-0.4,1.4-0.6c0.1,0.3,0.1,0.6,0.2,0.8
			c0,0,0.2,0.6,0.6,1.6l-0.5,0.2c-0.2-0.5-0.5-0.9-0.7-1.3c-0.3,0-0.6,0.1-1,0.2c-0.6,0.2-1.1,0.4-1.7,0.7c-0.1,0.1-0.4,0.2-0.8,0.4
			c-0.4,0.2-0.7,0.4-0.8,0.5c0.2,0.5,0.5,1,0.7,1.5l1.1,2.4c0.6-0.2,1.1-0.5,1.6-0.7c0.6-0.3,1-0.5,1.4-0.8c0.1-0.1,0.2-0.2,0.2-0.3
			c0-0.1,0-0.3-0.2-0.6l-0.2-0.5l0.4-0.2l0.1,0.1l0.7,1.5l0.8,1.7l-0.5,0.2l-0.3-0.5c-0.2-0.3-0.3-0.6-0.4-0.6
			c-0.1-0.1-0.2-0.1-0.4,0c-0.3,0.1-0.8,0.3-1.6,0.7c-0.3,0.2-0.8,0.4-1.3,0.7c0.2,0.5,0.5,1.2,1,2.1c0.4,0.9,0.8,1.5,1,2
			c0.7-0.3,1.5-0.6,2.3-1c0.6-0.3,1-0.5,1.3-0.7c0.2-0.2,0.4-0.3,0.6-0.5c0-0.2-0.1-0.4-0.1-0.7c-0.1-0.5-0.2-0.8-0.3-1.1l0.5-0.2
			c0.3,1,0.7,1.9,1,2.5c-0.4,0.3-0.9,0.5-1.5,0.8l-4.3,2C129.4,177.6,128.8,177.9,127.6,178.5z"/>
		<path fill="#FFFFFF" d="M146.8,167.5l-2.7-2.1l-5.4-4.1c-0.4-0.3-0.6-0.4-0.8-0.4c-0.1,0-0.4,0.1-0.9,0.5l-0.3-0.4
			c0.7-0.5,1.2-1,1.6-1.2c0.3-0.3,0.8-0.7,1.6-1.4l0.3,0.4c-0.5,0.5-0.8,0.8-0.9,0.9c0,0.1,0,0.2,0.1,0.2c0.1,0.1,0.3,0.3,0.5,0.5
			c0.7,0.6,1.2,1,1.4,1.2l4.5,3.5l-1.6-5c-0.4-1.3-0.9-2.7-1.4-4.1l0.4-0.3c1.3,0.9,2.5,1.6,3.5,2.2l4.7,2.8l-2-4.5
			c-0.4-0.8-0.7-1.6-1.2-2.5c-0.2-0.4-0.3-0.6-0.3-0.6c-0.1-0.1-0.2-0.1-0.3-0.1c-0.1,0-0.5,0.3-1,0.7l-0.3-0.4
			c0.7-0.5,1.1-0.8,1.3-1c0.3-0.2,0.7-0.6,1.3-1.1l0.3,0.4c-0.3,0.2-0.4,0.4-0.5,0.6c0,0.1,0,0.3,0,0.5c0.1,0.2,0.3,0.9,0.8,2
			l1.1,2.6c0.1,0.3,0.4,0.8,0.8,1.7l1.7,3.6l-0.6,0.5c-1.6-1-2.8-1.7-3.6-2.2l-4.5-2.6l1.3,4l0.9,2.6c0.1,0.4,0.2,0.7,0.3,1
			c0.1,0.3,0.3,0.7,0.5,1.4L146.8,167.5z"/>
		<path fill="#FFFFFF" d="M154.4,153.4c-0.6-0.5-1.2-1.1-1.5-1.8c-0.4-0.6-0.6-1.4-0.7-2.2c-0.1-0.8,0-1.6,0.3-2.3
			c0.2-0.8,0.7-1.5,1.3-2.2c0.6-0.7,1.2-1.2,1.8-1.6c0.6-0.4,1.3-0.6,1.9-0.7c0.6-0.1,1.2-0.1,1.7,0c0.4,0.1,0.8,0.2,1.3,0.4
			c0.5,0.2,0.9,0.5,1.3,0.9c1.4,1.1,2.1,2.6,2.3,4.2c0.1,1.7-0.4,3.2-1.5,4.6c-0.5,0.6-1.1,1.2-1.8,1.5c-0.7,0.4-1.4,0.6-2.1,0.6
			c-0.7,0-1.5-0.1-2.2-0.4C155.6,154.2,154.9,153.9,154.4,153.4z M154.9,151.7c0.4,0.3,0.8,0.6,1.3,0.9c0.5,0.3,0.9,0.4,1.3,0.6
			c0.7,0.2,1.3,0.3,1.9,0.3c0.6,0,1.1-0.2,1.6-0.4c0.5-0.3,0.9-0.6,1.3-1.1c0.5-0.7,0.9-1.4,0.9-2.1c0.1-0.8-0.1-1.5-0.5-2.2
			c-0.4-0.7-1-1.4-1.7-2c-0.6-0.5-1.3-1-2-1.2c-0.4-0.2-0.8-0.3-1.3-0.3c-0.4,0-0.8,0-1.2,0c-0.4,0.1-0.8,0.2-1.3,0.5
			c-0.5,0.3-0.9,0.6-1.3,1.1c-0.5,0.6-0.9,1.3-1,2.1c-0.1,0.7,0,1.4,0.3,2.2C153.7,150.5,154.2,151.1,154.9,151.7z"/>
		<path fill="#FFFFFF" d="M159,139.3l-0.4-0.3c0.1-0.2,0.3-0.4,0.5-0.8l0.8-1.3c0.2-0.3,0.4-0.7,0.7-1.2c0.4-0.7,0.6-1.1,0.7-1.3
			c0.5-0.9,1-1.5,1.4-1.8c0.4-0.3,0.8-0.5,1.3-0.5c0.5,0,0.9,0.1,1.3,0.3c0.4,0.2,0.7,0.6,1,1c0.3,0.4,0.4,0.9,0.4,1.5
			c0,0.5-0.1,1.2-0.3,1.9c0.2,0,0.7-0.1,1.5-0.2l3.3-0.4c0.9-0.1,1.5-0.2,1.6-0.2c0.1,0,0.1,0,0.1-0.1c0.1-0.1,0.2-0.2,0.3-0.4
			l0.4,0.3c-0.2,0.3-0.4,0.6-0.6,0.9c-0.2,0.3-0.3,0.6-0.5,1c-0.5,0.1-1.5,0.2-2.9,0.3c-0.8,0.1-1.4,0.1-2,0.2
			c-0.9,0.1-1.7,0.2-2.5,0.4l-0.2-0.2c0.2-0.2,0.3-0.4,0.3-0.5c0.5-0.8,0.7-1.6,0.5-2.2c-0.1-0.7-0.5-1.2-1.2-1.6
			c-0.6-0.3-1.1-0.4-1.7-0.2c-0.6,0.2-1,0.6-1.5,1.4c-0.3,0.5-0.5,1-0.6,1.5c0.2,0.2,0.5,0.3,0.7,0.5c0.1,0,0.7,0.5,2,1.2l3,1.8
			c0.6,0.4,1.2,0.7,1.8,1c0.4,0.2,0.7,0.4,0.8,0.4c0.1,0,0.2-0.1,0.3-0.1c0.1-0.1,0.3-0.4,0.7-0.9l0.4,0.3c-0.4,0.6-0.8,1.2-1.1,1.8
			c-0.3,0.4-0.7,1.2-1.3,2.2l-0.4-0.3c0.3-0.5,0.5-0.9,0.5-1c0-0.1,0-0.3,0-0.3c-0.1-0.1-0.3-0.3-0.6-0.5c-0.1-0.1-0.7-0.5-1.9-1.2
			l-3.2-1.9c-0.6-0.4-1.2-0.7-1.8-1.1c-0.4-0.2-0.7-0.4-0.8-0.4c-0.1,0-0.2,0.1-0.3,0.1C159.6,138.4,159.4,138.7,159,139.3z"/>
		<path fill="#FFFFFF" d="M175.3,132.4l-0.4-0.2c0-0.4,0-0.6-0.1-0.7c0-0.1-0.1-0.1-0.1-0.2c-0.1-0.1-0.4-0.3-0.8-0.5
			c-0.7-0.3-1.1-0.5-1.2-0.5l-4-1.7c-0.7-0.3-1.3-0.5-2-0.8c-0.5-0.2-0.8-0.3-0.9-0.2c-0.1,0-0.2,0.1-0.3,0.2
			c-0.1,0.1-0.3,0.5-0.5,1l-0.5-0.2c0.5-1.2,0.9-1.9,1-2.2c0.1-0.3,0.4-1,0.8-2.1l0.5,0.2c-0.2,0.6-0.4,1-0.4,1.1
			c0,0.1,0,0.3,0.1,0.3c0.1,0.1,0.3,0.2,0.7,0.4c0.1,0,0.8,0.3,2.1,0.9l4.9,2.1c0.5,0.2,0.9,0.4,1.3,0.5c0.3-0.5,0.5-1.1,0.7-1.6
			c0.6-1.4,0.9-2.4,0.9-3c-0.1-0.1-0.3-0.3-0.4-0.4l-1.1-0.8l0.2-0.5c0.7,0.4,1.5,0.9,2.4,1.4c0,0.2-0.1,0.4-0.1,0.5
			c-0.1,0.3-0.2,0.7-0.5,1.2l-1.9,4.3C175.6,131.4,175.4,131.9,175.3,132.4z"/>
		<path fill="#FFFFFF" d="M179.8,120.9l-0.4-0.1c-0.1-0.3-0.2-0.6-0.3-0.9c-0.3-0.1-0.8-0.3-1.4-0.4c-1.1-0.3-1.8-0.5-2.2-0.6
			l-3.1-0.8c-0.5-0.1-1.1-0.3-1.8-0.4c-0.4-0.1-0.7-0.1-0.8-0.1c-0.1,0-0.1,0.1-0.2,0.1c-0.1,0.2-0.2,0.5-0.4,1l-0.5-0.1
			c0.2-0.7,0.4-1.4,0.5-2c0.1-0.4,0.3-1,0.4-1.8s0.3-1.4,0.4-1.8c0.3-1.3,0.7-2.2,1.2-2.9c0.5-0.7,1.2-1.2,2.1-1.6
			c0.9-0.3,1.9-0.4,3-0.1c0.8,0.2,1.5,0.5,2.1,0.9c0.6,0.4,1.1,0.9,1.5,1.5c0.4,0.6,0.7,1.1,0.9,1.7c0.2,0.6,0.3,1.1,0.3,1.7
			c0,0.6-0.1,1.3-0.3,2.3c-0.1,0.3-0.2,0.7-0.3,1.3c-0.2,0.7-0.3,1.2-0.4,1.4C180.1,119.6,180,120.1,179.8,120.9z M179.6,118.3
			c0.2-0.5,0.4-1.1,0.6-1.8c0.2-0.6,0.2-1.2,0.3-1.8c0-0.5,0-1-0.2-1.4c-0.1-0.4-0.3-0.8-0.7-1.3c-0.3-0.4-0.8-0.8-1.4-1.1
			c-0.6-0.3-1.2-0.6-1.9-0.8c-1-0.2-1.8-0.3-2.6-0.1c-0.8,0.2-1.4,0.6-2,1.2c-0.5,0.6-1,1.5-1.3,2.7c-0.2,0.6-0.3,1.3-0.3,2
			c0.2,0.1,0.7,0.2,1.3,0.4l1.1,0.3l3.1,0.8l2.4,0.6C178.5,118.1,179,118.2,179.6,118.3z"/>
	</g>
	
		<rect x="176.1" y="90.5" transform="matrix(0.7072 0.7071 -0.7071 0.7072 118.1573 -99.0803)" fill="#FFFFFF" width="5.2" height="5.2"/>
	
		<rect x="1.3" y="90.5" transform="matrix(0.7071 0.7072 -0.7072 0.7071 66.9621 24.5617)" fill="#FFFFFF" width="5.2" height="5.2"/>
</g>
</svg>
